<?xml version="1.0" encoding="iso-8859-1"?>
<!-- Uploaded to: SVG Repo, www.svgrepo.com, Generator: SVG Repo Mixer Tools -->
<svg height="800px" width="800px" version="1.1" id="Layer_1" xmlns="http://www.w3.org/2000/svg" xmlns:xlink="http://www.w3.org/1999/xlink" 
	 viewBox="0 0 512 512" xml:space="preserve">
<path style="fill:#64B666;" d="M46.422,499.916c-0.35,0.811-0.324,1.349-0.224,1.497c0.1,0.149,0.58,0.383,1.464,0.383h159.816
	c2.328,0,4.221-1.895,4.221-4.221v-81.988c0-3.408-2.352-8.534-4.93-10.754l-28.323-24.406c-4.927-4.247-6.929-18.901-4.561-24.144
	c1.571-3.47,4.758-5.541,8.532-5.541c2.599,0,5.177,0.976,7.463,2.821l21.822,17.611v-65.918c0-6.982,5.678-12.663,12.663-12.663
	h45.876c6.982,0,12.797,5.682,12.797,12.663v29.455l29.284-14.134c1.788-0.88,3.764-1.344,5.719-1.344
	c4.765,0,8.917,2.599,10.837,6.785c2.744,5.976-0.036,20.708-6.2,23.813l-34.555,17.395c-2.73,1.375-5.218,5.41-5.218,8.467v25.133
	l63.178-31.276c1.796-0.9,3.792-1.376,5.765-1.376c4.743,0,8.868,2.6,10.771,6.788c2.713,5.981-0.072,20.716-6.217,23.824
	l-68.281,34.563c-2.73,1.383-5.218,5.428-5.218,8.49v55.74c0,2.326,1.893,4.221,4.221,4.221h177.222
	c0.881,0,1.366-0.237,1.461-0.383c0.1-0.15,0.125-0.687-0.221-1.499L255.963,10.199L46.422,499.916z"/>
<g>
	<path style="fill:#4D7846;" d="M464.347,512H287.125c-7.951,0-14.421-6.469-14.421-14.421v-55.739
		c0-6.906,4.647-14.468,10.808-17.589l67.73-34.285c1.509-2.017,2.751-8.463,2.047-10.875c-0.254-0.475-0.739-0.718-1.441-0.718
		c-0.385,0-0.822,0.108-1.197,0.297l-63.221,31.297c-3.162,1.566-6.907,1.385-9.904-0.475c-2.997-1.86-4.82-5.138-4.82-8.665
		v-25.134c0-6.912,4.656-14.469,10.831-17.577l33.999-17.114c1.505-2.008,2.734-8.414,2.031-10.814
		c-0.337-0.621-1.009-0.755-1.525-0.755c-0.397,0-0.828,0.105-1.215,0.296l-29.354,14.169c-3.162,1.526-6.884,1.318-9.855-0.547
		c-2.972-1.866-4.777-5.129-4.777-8.639v-29.455c0-1.313-1.214-2.465-2.598-2.465h-45.876c-1.359,0-2.464,1.106-2.464,2.465v65.918
		c0,3.929-2.256,7.508-5.801,9.202c-3.543,1.694-7.747,1.202-10.804-1.265l-21.822-17.611c-0.132-0.106-0.254-0.194-0.365-0.266
		c-0.319,3.273,0.835,9.686,2.215,11.657l28.102,24.215c4.828,4.158,8.472,12.104,8.472,18.481v81.988
		c0,7.951-6.469,14.421-14.421,14.421H47.661c-4.23,0-7.853-1.79-9.941-4.912c-2.119-3.157-2.367-7.234-0.674-11.179l0,0
		L246.587,6.187C248.193,2.434,251.881,0,255.962,0s7.771,2.434,9.377,6.186l209.623,489.719c1.667,3.915,1.438,7.946-0.616,11.09
		C472.27,510.176,468.63,512,464.347,512z M293.103,491.602h157.83L255.965,36.121L61.074,491.599h140.425V415.7
		c-0.114-0.838-0.911-2.575-1.472-3.211l-28.24-24.333c-8.55-7.369-11.349-26.882-7.199-36.069
		c3.224-7.122,10.053-11.541,17.827-11.541c4.954,0,9.75,1.758,13.871,5.084l5.216,4.209v-44.582
		c0-12.606,10.256-22.864,22.863-22.864h45.876c12.681,0,22.996,10.256,22.996,22.864v13.207l14.651-7.072
		c3.11-1.531,6.645-2.358,10.152-2.358c8.8,0,16.504,4.878,20.107,12.731c4.452,9.695,1.21,31.085-10.882,37.175l-34.018,17.124
		c-0.05,0.073-0.101,0.155-0.144,0.234v8.099l48.454-23.986c3.166-1.586,6.738-2.435,10.29-2.435
		c8.793,0,16.478,4.893,20.057,12.768c4.399,9.694,1.123,31.063-10.899,37.143L293.26,442.18c-0.056,0.08-0.111,0.17-0.157,0.255
		V491.602z"/>
	<path style="fill:#4D7846;" d="M323.321,267.219c-3.985,0-7.77-2.35-9.41-6.255l-44.077-105.052
		c-2.181-5.194,0.264-11.172,5.459-13.351c5.193-2.178,11.171,0.264,13.352,5.459l44.077,105.052
		c2.181,5.194-0.264,11.172-5.459,13.351C325.975,266.964,324.637,267.219,323.321,267.219z"/>
	<path style="fill:#4D7846;" d="M264.692,127.487c-3.985,0-7.771-2.351-9.41-6.256l-2.566-6.116
		c-2.18-5.194,0.266-11.172,5.461-13.351c5.191-2.178,11.171,0.264,13.351,5.46l2.566,6.116c2.18,5.194-0.266,11.172-5.461,13.351
		C267.344,127.231,266.008,127.487,264.692,127.487z"/>
</g>
</svg>